<svg xmlns="http://www.w3.org/2000/svg" xmlns:xlink="http://www.w3.org/1999/xlink" version="1.1" x="0px" y="0px" viewBox="0 0 100 100" enable-background="new 0 0 100 100" xml:space="preserve" height="100px" width="100px">
<g id="trash_can" display="none">
	<g display="inline">
		<g>
			<path fill="#000000" stroke="#231F20" stroke-width="1.7301" stroke-miterlimit="10" d="M49.858,25.458"/>
		</g>
		<g>
			<path fill="#000000" stroke="#231F20" stroke-width="1.7301" stroke-miterlimit="10" d="M49.858,25.458"/>
		</g>
		<g>
			<path fill="#000000" d="M31.665,43.35c-0.453,0.04-0.787,0.441-0.747,0.893l3.547,39.397c0.038,0.427,0.397,0.748,0.819,0.748     c0.023,0,0.049-0.001,0.074-0.003c0.454-0.041,0.787-0.441,0.746-0.895l-3.546-39.394C32.517,43.644,32.113,43.308,31.665,43.35z     "/>
			<path fill="#000000" d="M42.015,44.991c-0.455,0.019-0.807,0.402-0.788,0.856l1.644,39.5c0.019,0.442,0.383,0.789,0.822,0.789     c0.012,0,0.024,0,0.035-0.001c0.454-0.02,0.807-0.402,0.788-0.858l-1.644-39.498C42.853,45.325,42.464,44.962,42.015,44.991z"/>
			<path fill="#000000" d="M59.726,84.385c0.026,0.002,0.052,0.003,0.076,0.003c0.421,0,0.78-0.321,0.818-0.748l3.557-39.397     c0.04-0.452-0.294-0.853-0.746-0.893c-0.468-0.042-0.854,0.294-0.894,0.745L58.98,83.49     C58.94,83.943,59.274,84.344,59.726,84.385z"/>
			<path fill="#000000" d="M51.366,86.135c0.012,0.001,0.023,0.001,0.036,0.001c0.438,0,0.803-0.348,0.82-0.789l1.644-39.5     c0.019-0.455-0.334-0.837-0.787-0.856c-0.455-0.007-0.839,0.334-0.856,0.789l-1.645,39.498     C50.56,85.732,50.912,86.115,51.366,86.135z"/>
			<path fill="#000000" d="M29.347,33.708c0.555,0.001,1.055-0.237,1.403-0.615c0.313-0.339,0.504-0.793,0.504-1.291     c0-1.051-0.854-1.905-1.907-1.905c-1.051,0-1.904,0.854-1.904,1.905C27.443,32.855,28.296,33.708,29.347,33.708z"/>
			<circle fill="#000000" cx="41.176" cy="33.875" r="1.906"/>
			<path fill="#000000" d="M66.492,16.187c-0.285-2.304-1.264-4.04-2.302-5.257c-2.138-2.507-5.106-3.707-6.701-4.352     C56.123,6.027,53.582,5,50.742,5c-1.932,0-4.277,0.487-6.425,2.23c-8.627-2.307-17.438-3.172-19.308,1.44l-2.342,5.79     c-0.269,0.66-0.195,1.411,0.199,2.005l0.953,1.445l-1.827,14.712l-0.641,1.25h-0.106c0,0.057,0.015,0.114,0.019,0.171     l-0.731,1.426c-0.195,0.38-0.274,0.809-0.226,1.233l5.48,48.327C25.935,91.577,36.806,95,47.543,95     c10.741,0,21.615-3.423,21.763-9.969L74.62,38.07l1.126-0.382c0.595-0.201,1.073-0.652,1.309-1.233l0.865-2.128     c0.016-0.037,0.029-0.073,0.042-0.111l1.441-3.564C81.263,26.03,74.308,20.523,66.492,16.187z M43.314,14.214     c1.625-4.018,4.052-5.97,7.422-5.97c2.21,0,4.288,0.841,5.531,1.342c1.338,0.541,3.827,1.546,5.449,3.449     c1.452,1.704,1.935,3.764,1.452,6.251c0.002,0.001,0.004,0.002,0.006,0.003c-0.161,0.828-0.428,1.702-0.802,2.627     c-0.111,0.275-0.189,0.275-0.347,0.275h-0.001c-0.003,0-0.004,0-0.006,0c-0.245,0-0.591-0.09-1.033-0.269     c-0.63-0.253-0.886-0.461-0.989-0.59c-0.052-0.063-0.099-0.123,0.003-0.375c0.244-0.606,0.427-1.166,0.558-1.689     c0.025-0.102,0.046-0.201,0.066-0.301c0.029-0.134,0.054-0.265,0.075-0.394c0.021-0.135,0.039-0.267,0.054-0.398     c0.337-3.159-1.751-4.729-5.441-6.221c-2.078-0.839-3.401-1.182-4.57-1.182c-1.643,0-2.768,0.759-3.596,1.781     c0.002,0.001,0.003,0.001,0.004,0.002c-0.637,0.786-1.103,1.725-1.462,2.615c-0.111,0.277-0.19,0.277-0.348,0.277     c0,0,0,0-0.001,0c-0.002,0-0.003,0-0.005,0c-0.245,0-0.593-0.09-1.032-0.269C43.118,14.701,43.222,14.443,43.314,14.214z      M42.402,11.189c-0.387,0.658-0.752,1.388-1.087,2.215c-0.376,0.93-0.592,2.659,2.182,3.781c0.719,0.29,1.304,0.425,1.843,0.425     c1.094,0,1.93-0.579,2.353-1.628c0.613-1.516,1.195-2.278,1.742-2.663c1.485,0.517,3.025,1.09,4.633,1.739     c1.605,0.649,3.106,1.306,4.531,1.964c0.177,0.798-0.053,1.775-0.599,3.126c-0.372,0.921-0.261,1.822,0.315,2.539     c0.396,0.493,0.99,0.888,1.866,1.242c0.719,0.291,1.304,0.425,1.844,0.425c1.093,0,1.929-0.579,2.352-1.628     c0.329-0.813,0.561-1.593,0.748-2.358c6.56,3.755,10.002,7.092,10.244,8.47c-3.847,0.85-12.928-0.398-24.78-5.19     c-11.832-4.78-19.222-10.181-21.414-13.467C30.385,9.354,35.157,9.356,42.402,11.189z M30.351,27.18     c2.553,0,4.622,2.069,4.622,4.622c0,2.553-2.07,4.622-4.622,4.622c-2.552,0-4.623-2.068-4.623-4.622     C25.728,29.25,27.798,27.18,30.351,27.18z M64.997,84.653c-0.011,0.081-0.015,0.162-0.015,0.243     c0,2.301-6.956,5.778-17.439,5.778c-10.479,0-17.431-3.477-17.431-5.778c0-0.081-0.006-0.163-0.014-0.244l-5.305-46.766     c4.642,2.303,13.475,3.757,23.614,3.757c8.758,0,16.814-1.136,21.795-2.986L64.997,84.653z M37.556,33.875     c0-2.553,2.071-4.622,4.624-4.622c2.552,0,4.623,2.069,4.623,4.622c0,2.554-2.071,4.622-4.623,4.622     C39.627,38.498,37.556,36.429,37.556,33.875z M73.911,32.692c-0.014,0.035-0.026,0.068-0.038,0.103l-0.422,1.037     c-3.175,0.917-11.994,0.111-24.912-5.106c-10.664-4.304-17.961-9.22-20.681-12.549l-0.755-1.143l1.236-3.072     c3.549,4.418,12.507,9.614,21.605,13.289c8.046,3.253,16.845,5.577,22.66,5.577c0.761,0,1.465-0.044,2.114-0.128L73.911,32.692z"/>
		</g>
	</g>
</g>
<g id="hot_dog" display="none">
	<g display="inline">
		<path fill="#000000" d="M92.021,28.25c-0.478-0.428-0.973-0.803-1.484-1.129c1.771-3.395,2.791-8.647-1.847-12.552    c-3.84-3.233-9.678-1.784-13.545,0.306c-4.433-3.206-10.446-0.256-13.345,2.043C38.69,35.263,33.881,39.081,20.45,47.44    c-9.818,6.109-10.112,12.039-9.643,14.629c-7.285,5.227-6.198,10.935-4.759,14.022c0.573,1.238,2.542,4.338,7.793,4.338    c1.598,0,3.507-0.296,5.766-1.009c1.144,5.119,4.987,7.905,11.067,7.905c6.834,0,15.543-3.59,21.141-7.146    c9.703-6.166,33.077-21.938,40.531-35.221C94.618,40.905,97.107,32.826,92.021,28.25z M22.145,50.162    c13.586-8.455,18.421-12.293,41.651-30.731c0.053-0.043,4.795-3.738,8.377-2.52c-2.379,1.997-4.714,3.932-7.021,5.83    c-0.68,0.41-1.265,0.903-1.774,1.458c-4.353,3.557-8.565,6.924-12.631,10.099c-2.008,0.504-4.158,1.748-6.083,4.684    c-3.55,2.698-6.968,5.226-10.246,7.582c-2.152,0.299-3.952,1.296-5.459,3.047c-0.423,0.49-0.765,1.004-1.051,1.528    c-5.088,3.491-9.786,6.506-14.017,8.979C14.064,57.971,15.513,54.288,22.145,50.162z M19.545,62.815    c-0.377-0.088-0.695-0.318-0.896-0.646c-0.197-0.322-0.256-0.703-0.166-1.073c0.155-0.648,0.732-1.102,1.405-1.102    c0.112,0,0.223,0.013,0.334,0.04c3.093,0.729,5.23,0.745,6.275,0.055c0.895-0.589,1.167-1.811,1.509-3.765    c0.31-1.767,0.696-3.962,2.166-5.667c1.525-1.771,3.321-2.596,5.653-2.596c0.986,0,1.911,0.144,2.729,0.271    c1.805,0.28,2.959,0.346,3.772-0.203c1.371-0.926,1.7-2.327,2.116-4.1c0.298-1.283,0.636-2.737,1.484-4.058    c3.063-4.764,6.642-4.48,9.319-4.339c0.529,0.028,0.996,0.049,1.418,0.049c1.472,0,2.606-0.254,3.708-1.523    c0.39-0.444,0.752-1.483,1.233-2.942c0.865-2.625,2.052-6.219,5.144-7.523c1.08-0.455,2.529-0.978,4.156-0.978    c1.235,0,2.434,0.292,3.666,0.89c0.343,0.167,0.602,0.458,0.726,0.819c0.122,0.36,0.099,0.747-0.07,1.09    c-0.34,0.69-1.227,1.001-1.931,0.659c-1.433-0.697-3.641-0.606-5.431,0.149c-1.888,0.799-2.755,3.443-3.523,5.781    c-0.53,1.61-0.99,3-1.792,3.919c-1.944,2.231-4.21,2.517-5.965,2.517c-0.526,0-1.03-0.026-1.507-0.052    c-0.537-0.029-1.03-0.054-1.491-0.054c-2.01,0-3.586,0.513-5.231,3.068c-0.579,0.903-0.835,2.001-1.108,3.164    c-0.464,1.997-0.991,4.263-3.307,5.826c-0.934,0.631-1.978,0.925-3.284,0.925c-0.882,0-1.733-0.132-2.559-0.261    c-0.852-0.131-1.614-0.24-2.315-0.24c-1.437,0-2.461,0.475-3.423,1.592c-0.959,1.111-1.23,2.66-1.518,4.308    c-0.372,2.133-0.757,4.342-2.761,5.657c-0.496,0.322-1.044,0.562-1.673,0.724C24.713,63.633,22.488,63.512,19.545,62.815z     M89.548,43.389c-7.097,12.646-29.954,28.049-39.453,34.084c-5.208,3.307-13.232,6.646-19.421,6.646c0,0,0,0-0.001,0h-0.001    c-5.299,0-7.921-2.689-8.21-7.483c-0.268-4.453,5.607-8.134,8.717-10.13C49.314,54.851,54.337,50.69,65.342,41.574    c2.601-2.154,5.546-4.594,9.086-7.482c4.362-3.564,7.908-5.294,10.838-5.294c0.539,0,1.049,0.08,1.547,0.198l0.001-0.001    c0.026,0.006,0.051,0.017,0.077,0.024c0.408,0.102,0.806,0.246,1.188,0.429c0.175,0.081,0.349,0.168,0.52,0.267    c0.124,0.072,0.247,0.145,0.368,0.227c0.309,0.205,0.614,0.428,0.91,0.694C93.465,33.862,91.23,40.388,89.548,43.389z"/>
	</g>
</g>
<g id="disguise" display="none">
	<path display="inline" fill="#000000" d="M93.75,22.808c-0.642-1.002-3.422-1.875-6.705-2.563   c-2.901-8.443-26.463-7.924-33.734-7.592c0.784,5.505,9.023,5.748,14.616,6.288c-3.109,0.406-6.09,1.074-9.009,1.738   c-2.568,0.583-5.223,1.187-7.902,1.587c-0.488,0.073-1.592,0.077-2.02,0.003c-2.341-0.41-4.67-0.941-6.923-1.454   c-3.184-0.726-6.434-1.462-9.833-1.89c5.588-0.53,13.673-0.822,14.451-6.273c-7.271-0.332-30.833-0.852-33.735,7.592   c-3.282,0.689-6.063,1.56-6.704,2.562c-0.311,0.484-0.384,1.42,0.075,2.273c0.301,0.558,1.062,1.469,2.85,1.612   c2.828,14.076,3.973,19.368,13.218,20.692c0.828,0.118,3.985,0.455,7.51,0.455c3.664,0,6.487-0.356,8.481-1.045   c-0.106,0.657-0.214,1.311-0.314,2c-3.667,0.772-6.473,4.803-6.473,9.643c0,4.79,2.75,8.777,6.361,9.608   c-4.22,1.398-7.97,3.709-10.597,6.358c-4.84,4.886-3.18,5.811-9.197,9.296c0,0,7.038,3.799,16.393,3.799   c10.035,0,11.876-6.793,15.44-6.793c3.562,0,5.405,6.793,15.441,6.793c9.354,0,16.392-3.799,16.392-3.799   c-6.018-3.485-4.355-4.41-9.196-9.296c-2.628-2.649-6.377-4.96-10.598-6.358c3.612-0.831,6.361-4.818,6.361-9.608   c0-4.542-2.49-8.416-5.877-9.478c-0.098-0.653-0.201-1.309-0.308-1.967c1.947,0.561,4.575,0.847,7.879,0.847   c3.523,0,6.683-0.337,7.512-0.455c9.243-1.324,10.388-6.616,13.217-20.692c1.788-0.143,2.55-1.054,2.851-1.612   C94.133,24.227,94.06,23.291,93.75,22.808z M38.014,42.581c-1.204,1.043-3.992,1.593-8.062,1.593c-2.787,0-5.26-0.265-5.907-0.357   c-6.621-0.947-7.52-4.101-9.913-16.001c-0.349-1.948-0.06-2.361,0.171-2.693c0.054-0.078,0.106-0.151,0.15-0.229   c0.707-1.222,7.917-2.385,11.863-2.395l0.107-0.509v0.509c5.108,0,11.073,0.924,18.222,2.825l-0.702,4.295   c-0.006,0.036-0.013,0.066-0.019,0.102c-1.812,2.563-3.304,6.421-4.488,11.621c-0.353,0.352-0.688,0.629-0.991,0.879   C38.293,42.344,38.149,42.462,38.014,42.581z M65.017,58.437c0,4.081-2.815,7.383-5.626,6.104   c-0.827-0.377-1.806-0.031-2.215,0.781c-1.862,3.712-4.565,6.11-6.887,6.11c-2.009,0-4.274-1.8-6.05-4.688   c-0.001,0-0.001,0-0.001,0c-0.002-0.004-0.005-0.008-0.007-0.013c-0.114-0.186-0.225-0.376-0.335-0.57   c-0.197-0.344-0.39-0.695-0.569-1.068c-0.206-0.425-0.58-0.746-1.032-0.883c-0.161-0.049-0.326-0.074-0.492-0.074   c-0.298,0-0.594,0.079-0.856,0.233c-0.52,0.305-1.056,0.459-1.593,0.459c-2.368,0-4.369-2.927-4.369-6.391   c0-3.464,2-6.39,4.353-6.39h0.002c0.015,0.001,0.101,0.009,0.116,0.01c0.69,0.041,1.314-0.325,1.618-0.931   c0.084-0.169,0.141-0.356,0.166-0.546h0.001c0.096-0.713,0.198-1.403,0.302-2.082c0.045-0.295,0.091-0.583,0.138-0.872   c0.054-0.333,0.109-0.661,0.166-0.985c0.143-0.835,0.292-1.644,0.447-2.422c0.001-0.008,0.003-0.016,0.004-0.023l0,0   c1.498-7.499,3.559-12.41,5.952-14.177c0.169-0.125,0.34-0.234,0.514-0.329c0.083-0.045,0.168-0.08,0.251-0.118   c0.137-0.061,0.273-0.114,0.412-0.155c0.073-0.022,0.147-0.045,0.221-0.061c0.213-0.049,0.426-0.081,0.643-0.081   c0.462,0,0.911,0.107,1.348,0.301c0.022,0.009,0.047,0.014,0.07,0.024l0,0c2.923,1.365,5.269,7.081,7.001,17.022   c0.06,0.336,0.119,0.672,0.177,1.018c0.044,0.269,0.088,0.544,0.132,0.82c0.109,0.683,0.217,1.378,0.32,2.101   c0.009,0.078,0.023,0.157,0.04,0.228c0.176,0.705,0.781,1.219,1.505,1.278C63.161,52.251,65.017,55.108,65.017,58.437z    M86.239,27.806c-2.395,11.911-3.293,15.064-9.915,16.011c-0.646,0.092-3.116,0.357-5.906,0.357c-4.069,0-6.858-0.55-8.062-1.593   c-0.136-0.118-0.279-0.237-0.43-0.36c-0.229-0.188-0.477-0.396-0.735-0.636c-1.081-4.887-2.583-9.394-4.818-12.312l-0.646-3.949   c7.151-1.901,13.117-2.825,18.224-2.825v-0.509l0.105,0.509C78,22.508,85.21,23.671,85.917,24.893   c0.045,0.078,0.096,0.152,0.15,0.229C86.298,25.454,86.587,25.867,86.239,27.806z"/>
</g>
<g id="beer" display="none">
	<path display="inline" fill="#000000" d="M86.195,48.245c-0.377-5.384-1.639-9.455-3.856-12.452   c-2.604-3.511-8.3-4.484-13.716-4.319l-0.091-1.519c3.046-1.268,5.206-4.276,5.206-7.751c0-4.634-3.771-8.404-8.405-8.404   c-1.471,0-2.893,0.384-4.141,1.093c-1.436-3.421-4.796-5.757-8.71-5.757c-2.711,0-5.218,1.154-6.97,3.068   C43.804,9.371,40.692,7.5,37.217,7.5c-3.914,0-7.339,2.321-8.854,5.765c-1.116-0.482-2.32-0.731-3.567-0.731   c-4.983,0-9.038,4.054-9.038,9.037c0,3.541,2.002,6.589,4.96,8.071l-3.208,53.316c-3.597,0.778-3.76,2.695-3.76,3.709   c0,2.688,12.745,5.834,30.866,5.834c18.119,0,30.863-3.146,30.863-5.834c0-1.014-0.164-2.931-3.76-3.709l-0.831-13.83   c5.55-0.512,10.104-3.118,12.24-7.043C84.912,58.81,86.57,53.627,86.195,48.245z M65.413,27.215   c-0.037,0.001-0.074,0.003-0.11,0.005H41.324c-0.935,0-1.694,0.759-1.694,1.693v8.917c0,1.116-0.908,2.024-2.024,2.024   c-1.116,0-2.024-0.908-2.024-2.024v-8.917c0-0.935-0.759-1.693-1.693-1.693h-0.739c-0.935,0-1.694,0.759-1.694,1.693v18.878   c0,1.434-1.166,2.6-2.6,2.6c-1.433,0-2.6-1.167-2.6-2.6v-18.89c0-0.914-0.727-1.664-1.641-1.692   c-2.005-0.064-3.712-1.154-4.663-2.752c-0.121-0.2-0.231-0.404-0.327-0.618c-0.041-0.092-0.074-0.186-0.109-0.28   c-0.102-0.268-0.189-0.542-0.249-0.829c-0.01-0.044-0.014-0.089-0.022-0.134c-0.062-0.333-0.1-0.674-0.1-1.026   c0-3.115,2.535-5.649,5.65-5.649c1.283,0,2.493,0.422,3.502,1.223c0.467,0.371,1.099,0.469,1.655,0.255   c0.56-0.213,0.964-0.705,1.066-1.293c0.525-3.023,3.131-5.217,6.199-5.217c3.137,0,5.817,2.345,6.235,5.455   c0.104,0.779,0.733,1.385,1.516,1.459c0.782,0.079,1.515-0.399,1.767-1.145c0.833-2.473,3.143-4.133,5.747-4.133   c3.157,0,5.753,2.369,6.038,5.511c0.062,0.68,0.527,1.257,1.178,1.462c0.65,0.208,1.363-0.002,1.804-0.522   c0.958-1.136,2.354-1.786,3.831-1.786c2.768,0,5.019,2.25,5.019,5.017c0,0.302-0.037,0.597-0.09,0.884   c-0.011,0.063-0.021,0.125-0.034,0.187c-0.06,0.261-0.138,0.516-0.235,0.76c-0.033,0.081-0.072,0.16-0.108,0.241   c-0.084,0.178-0.176,0.35-0.279,0.516c-0.081,0.132-0.169,0.258-0.261,0.382c-0.092,0.121-0.186,0.238-0.287,0.351   c-0.095,0.105-0.189,0.207-0.292,0.305c-0.146,0.136-0.297,0.266-0.458,0.384v0C67.491,26.821,66.496,27.199,65.413,27.215z    M76.301,58.364c-1.389,1.439-2.769,2.634-5.88,2.985L69.09,39.253c3.025-0.032,5.449,0.746,6.469,1.724   c2.045,1.971,2.612,4.004,2.877,7.807C78.7,52.592,77.807,56.804,76.301,58.364z"/>
</g>
<g id="vulcan">
	<g>
		<path fill="#646464" d="M68.011,79.767c-0.098-0.454-0.39-0.841-0.798-1.061c-0.409-0.22-0.893-0.248-1.325-0.081    c-0.164,0.064-0.338,0.12-0.507,0.18c0.08-0.833,0.437-1.711,0.647-2.115c0.674-0.938,1.297-1.765,1.871-2.524    c1.852-2.452,3.316-4.39,4.222-7.202c1.312-4.066,1.12-8.63,0.836-12.591c-0.249-3.429-1.187-10.438-1.371-11.807l3.57-24.09    c0.285-1.319,0.211-2.627-0.208-3.691c-0.536-1.358-1.595-2.276-2.982-2.587l-0.376-0.084c-0.619-0.139-1.224-0.155-1.797-0.051    c0.058-0.599,0.05-1.543-0.166-2.488c-0.424-1.862-1.516-3.08-3.069-3.426l-0.382-0.087c-1.332-0.3-2.707-0.021-3.865,0.781    c-1.118,0.776-1.902,1.954-2.201,3.297L55.482,29.68L50.937,9.167c-0.263-1.417-1.082-2.659-2.247-3.406    c-1.124-0.721-2.459-0.939-3.765-0.613l-0.382,0.096c-2.916,0.734-3.442,4.423-3.359,5.908c-0.604-0.118-1.247-0.094-1.909,0.073    l-0.381,0.096c-2.654,0.669-4.393,3.471-3.897,6.261l3.769,28.576c-1.101-1.13-2.094-2.368-3.033-3.538    c-2.462-3.07-5.005-6.243-8.448-4.821c-1.089,0.451-1.879,1.233-2.285,2.262c-1.139,2.885,0.865,7.294,3.637,13.396    c1.07,2.355,2.282,5.023,3.4,7.816c1.573,3.932,5.167,7.917,7.79,10.826c1.186,1.316,2.308,2.559,2.721,3.244    c0.211,0.574,0.363,2.236,0.163,3.354c-0.273-0.071-0.437-0.117-0.447-0.12c-0.813-0.233-1.672,0.212-1.942,1.017    c-1.931,5.747-0.653,11.447-0.598,11.687c0.115,0.499,0.464,0.911,0.938,1.107C44.849,94.122,49.324,95,53.963,95    c7.885,0,13.48-2.527,13.714-2.634c0.498-0.228,0.842-0.697,0.91-1.24C69.271,85.711,68.063,80.007,68.011,79.767z M45.318,73.812    c-0.553-0.962-1.695-2.228-3.14-3.832c-2.465-2.733-5.839-6.476-7.202-9.882c-1.145-2.861-2.373-5.564-3.457-7.949    c-2.17-4.777-4.22-9.289-3.575-10.924c0.066-0.168,0.179-0.345,0.551-0.499c1.169-0.479,2.577,1.145,4.767,3.876    c2.315,2.888,5.196,6.482,9.462,8.019c2.706,0.976,7.753,5.232,7.753,9.887c0,0.874,0.709,1.583,1.583,1.583    s1.583-0.709,1.583-1.583c0-6.582-6.412-11.628-9.846-12.866c-0.511-0.184-0.997-0.413-1.467-0.671l-4.2-31.841    c-0.004-0.028-0.009-0.056-0.014-0.084c-0.219-1.172,0.491-2.389,1.549-2.655l0.381-0.096c0.442-0.11,0.664-0.014,0.793,0.068    c0.346,0.222,0.634,0.785,0.774,1.538l5.202,25.004c0.177,0.85,1.002,1.399,1.859,1.23c0.853-0.17,1.409-0.995,1.247-1.849    l-5.576-29.305c-0.036-0.647,0.281-2.494,0.969-2.668l0.381-0.096c0.574-0.144,1.015,0.034,1.284,0.206    c0.439,0.282,0.738,0.751,0.856,1.374l6.049,27.31c0.16,0.721,0.796,1.235,1.534,1.241c0.004,0,0.008,0,0.011,0    c0.734,0,1.371-0.504,1.541-1.219l6.225-26.28c0.13-0.584,0.456-1.083,0.918-1.404c0.422-0.293,0.911-0.395,1.364-0.295    l0.382,0.087c0.775,0.173,0.846,2.129,0.779,2.563l-5.751,26.232c-0.186,0.848,0.347,1.689,1.194,1.882    c0.845,0.194,1.691-0.332,1.892-1.177l5.203-21.878c0.167-0.746,0.481-1.313,0.863-1.555c0.146-0.093,0.395-0.203,0.859-0.101    l0.377,0.084c0.238,0.053,0.537,0.176,0.726,0.659c0.193,0.489,0.212,1.18,0.051,1.897c-0.009,0.038-0.016,0.076-0.021,0.114    l-3.611,24.366c-0.021,0.148-0.023,0.298-0.002,0.446c0.011,0.082,1.117,8.203,1.381,11.831c0.263,3.662,0.447,7.864-0.691,11.391    c-0.742,2.303-1.933,3.879-3.735,6.266c-0.605,0.802-1.264,1.675-1.978,2.672c-0.034,0.048-0.066,0.097-0.094,0.148    c-0.162,0.288-1.289,2.405-1.072,4.612c-2.073,0.431-4.357,0.651-6.836,0.651c-3.71,0-7.162-0.494-9.599-0.959    C46.236,77.186,45.753,74.565,45.318,73.812z M65.541,89.816c-1.725,0.646-6.044,2.018-11.578,2.018    c-3.929,0-7.724-0.69-11.296-2.054c-0.214-1.405-0.517-4.498,0.254-7.765c2.353,0.555,7.119,1.492,12.472,1.492    c3.646,0,6.941-0.439,9.827-1.307C65.481,83.999,65.782,86.928,65.541,89.816z"/>
		<circle fill="#646464" cx="46.209" cy="86.734" r="1.642"/>
	</g>
</g>
</svg>
