<svg xmlns="http://www.w3.org/2000/svg" xmlns:xlink="http://www.w3.org/1999/xlink" version="1.1" id="Icon" x="0px" y="0px" width="100px" height="100px" viewBox="0 0 100 100" enable-background="new 0 0 100 100" xml:space="preserve">
<g>
	<g>
		<path fill-rule="evenodd" clip-rule="evenodd" fill="#000000" d="M14.529,17.97c0-2.571-1.647-4.757-3.941-5.569V8.117    c0-1.089-0.883-1.971-1.97-1.971c-1.087,0-1.971,0.881-1.971,1.971v4.284c-2.294,0.812-3.941,2.998-3.941,5.569    c0,2.571,1.647,4.757,3.941,5.569v20.392c-2.294,0.812-3.941,2.998-3.941,5.569s1.647,4.757,3.941,5.569v20.392    c-2.294,0.812-3.941,2.998-3.941,5.569s1.647,4.757,3.941,5.569v4.283c0,1.09,0.883,1.971,1.971,1.971    c1.087,0,1.97-0.881,1.97-1.971V86.6c2.294-0.812,3.941-2.998,3.941-5.569s-1.647-4.758-3.941-5.569V55.069    c2.294-0.812,3.941-2.998,3.941-5.569s-1.647-4.757-3.941-5.569V23.539C12.881,22.728,14.529,20.541,14.529,17.97z M93.354,10.087    H36.206c0,0-2.64-0.235-3.449,0.57L24.94,16.48c-0.808,0.805-0.808,2.109,0,2.914l7.817,5.823    c0.809,0.805,3.449,0.635,3.449,0.635h57.148c2.179,0,3.941-1.763,3.941-3.941v-7.882C97.295,11.851,95.532,10.087,93.354,10.087z     M93.354,41.618H36.206c0,0-2.64-0.235-3.449,0.569l-7.817,5.824c-0.808,0.804-0.808,2.109,0,2.913l7.817,5.823    c0.809,0.805,3.449,0.636,3.449,0.636h57.148c2.179,0,3.941-1.763,3.941-3.941v-7.883C97.295,43.38,95.532,41.618,93.354,41.618z     M93.354,73.147H36.206c0,0-2.64-0.234-3.449,0.569L24.94,79.54c-0.808,0.805-0.808,2.109,0,2.914l7.817,5.823    c0.809,0.805,3.449,0.635,3.449,0.635h57.148c2.179,0,3.941-1.763,3.941-3.941v-7.882C97.295,74.91,95.532,73.147,93.354,73.147z"/>
	</g>
</g>
</svg>