<svg xmlns="http://www.w3.org/2000/svg" xmlns:xlink="http://www.w3.org/1999/xlink" version="1.1" id="Layer_1" x="0px" y="0px" width="100px" height="100px" viewBox="0 0 100 100" enable-background="new 0 0 100 100" xml:space="preserve">
<path fill="#3489CE" d="M84.045,41.422c-2.476-1.179-5.421,0-6.952,2.828l-8.014,14.141c-2.592,3.417-7.896,1.061-7.896-2.356V46.017l4.831-30.991  c0.59-3.063-0.471-5.656-3.062-6.363c-2.476-0.707-5.067,1.061-5.657,4.124l-5.42,30.403c-0.118,0.471-0.59,0.707-1.061,0.942  h-0.707c-0.59,0.118-1.061-0.825-0.825-2.003l5.656-31.11c0.472-3.063-0.589-5.656-2.945-6.363  c-2.476-0.707-5.186,1.061-5.656,4.124l-6.835,36.177c-0.118,0.59-0.472,0.943-1.061,0.943h-0.118c-0.589,0-1.061-0.354-1.179-0.943  L31.96,11.608c-0.589-3.064-3.063-4.832-5.539-4.125c-2.592,0.589-3.652,3.3-3.063,6.363l5.303,33.231  c0.118,1.061-0.117,1.885-0.942,1.885c-0.707,0.118-1.297-0.235-1.532-0.942l-3.889-27.339c-0.471-3.182-3.182-4.714-5.773-4.124  c-2.475,0.707-3.418,3.182-3.064,6.48l3.653,25.689l5.774,34.527c3.299,19.561,35.469,13.434,45.014-2.592l17.794-31.936  C87.344,45.781,86.756,42.6,84.045,41.422z"/>
</svg>
