<?xml version="1.0" encoding="utf-8"?>
<!-- Generator: Adobe Illustrator 16.0.4, SVG Export Plug-In . SVG Version: 6.00 Build 0)  -->
<!DOCTYPE svg PUBLIC "-//W3C//DTD SVG 1.1//EN" "http://www.w3.org/Graphics/SVG/1.1/DTD/svg11.dtd">
<svg version="1.1" id="Ebene_1" xmlns="http://www.w3.org/2000/svg" xmlns:xlink="http://www.w3.org/1999/xlink" x="0px" y="0px"
	 width="137.25px" height="152.333px" viewBox="0 0 137.25 152.333" enable-background="new 0 0 137.25 152.333"
	 xml:space="preserve">
<g>
	<polygon fill="#FFFFFF" stroke="#9D9D9C" stroke-width="5.1024" stroke-miterlimit="3.8637" points="134.763,118.891 
		68.689,149.472 2.676,118.917 2.676,3.579 68.689,29.563 134.696,3.908 134.763,118.891 	"/>
	<path d="M24.405,61.858v-7.29h-5.459V63c0,0.551-0.484,0.985-1.101,0.985c-0.616,0-1.145-0.434-1.145-0.985V44.284
		c0-0.551,0.528-1.024,1.145-1.024c0.617,0,1.101,0.473,1.101,1.024v7.092h5.459v-5.95c0-2.246-0.132-5.24-6.56-5.24
		s-6.56,2.995-6.56,5.24v16.431c0,2.207,0.132,5.201,6.56,5.201S24.405,64.064,24.405,61.858L24.405,61.858z"/>
	<path fill-rule="evenodd" clip-rule="evenodd" d="M39.878,51.376v-6.935c0-2.798-1.585-4.216-4.623-4.216
		c-1.233,0-2.465,0.63-3.038,1.536v-1.261h-5.459v26.282h5.459V44.324c0-0.552,0.484-1.024,1.101-1.024
		c0.616,0,1.145,0.473,1.145,1.024v7.053H39.878L39.878,51.376z"/>
	<path fill-rule="evenodd" clip-rule="evenodd" d="M55.021,61.858V45.427c0-2.246-0.088-5.24-6.56-5.24
		c-6.428,0-6.56,2.995-6.56,5.24v16.431c0,2.207,0.132,5.201,6.56,5.201C54.932,67.059,55.021,64.064,55.021,61.858L55.021,61.858z
		 M49.605,62.961c0,0.551-0.528,1.024-1.145,1.024s-1.101-0.473-1.101-1.024V44.284c0-0.551,0.484-0.985,1.101-0.985
		s1.145,0.434,1.145,0.985V62.961L49.605,62.961z"/>
	<path d="M70.48,61.858V51.376H62.82v-7.092c0-0.551,0.484-1.024,1.101-1.024s1.145,0.473,1.145,1.024v5.083h5.416v-3.94
		c0-2.246-0.088-5.24-6.56-5.24c-6.428,0-6.56,2.995-6.56,5.24v9.063h7.661v8.471c0,0.591-0.484,1.024-1.101,1.024
		s-1.101-0.434-1.101-1.024v-6.462H57.36v5.359c0,2.207,0.132,5.201,6.56,5.201C70.393,67.059,70.48,64.064,70.48,61.858
		L70.48,61.858z"/>
	<path d="M85.94,61.858V51.376h-7.66v-7.092c0-0.551,0.483-1.024,1.101-1.024c0.616,0,1.145,0.473,1.145,1.024v5.083h5.415v-3.94
		c0-2.246-0.088-5.24-6.56-5.24c-6.429,0-6.561,2.995-6.561,5.24v9.063h7.661v8.471c0,0.591-0.484,1.024-1.101,1.024
		c-0.617,0-1.101-0.434-1.101-1.024v-6.462h-5.46v5.359c0,2.207,0.132,5.201,6.561,5.201C85.853,67.059,85.94,64.064,85.94,61.858
		L85.94,61.858z"/>
	<path d="M59.429,107.871V94.96h-9.225v14.935c0,0.977-0.818,1.744-1.86,1.744s-1.935-0.768-1.935-1.744V76.748
		c0-0.977,0.893-1.814,1.935-1.814s1.86,0.837,1.86,1.814v12.561h9.225V78.771c0-3.977-0.223-9.281-11.084-9.281
		S37.26,74.794,37.26,78.771v29.1c0,3.908,0.223,9.212,11.084,9.212S59.429,111.779,59.429,107.871L59.429,107.871z"/>
	<path d="M85.575,116.593V70.048h-9.15v39.847c0,0.977-0.893,1.744-1.935,1.744c-1.041,0-1.859-0.768-1.859-1.744V70.048h-9.225
		v39.637c0,4.955,2.752,7.397,7.812,7.397c2.157,0,4.166-1.117,5.207-2.722v2.232H85.575L85.575,116.593z"/>
	<polygon points="98.754,116.593 98.754,56.092 89.529,56.092 89.529,116.593 98.754,116.593 	"/>
	<path d="M126.447,77.167v-7.188h-12.944V56.022h-9.225v13.957h-2.753v7.188h2.753v30.704c0,3.908,0.223,9.212,11.084,9.212
		c10.936,0,11.085-5.304,11.085-9.212V80.725h-9.15v29.1c0,0.977-0.893,1.814-1.935,1.814c-1.041,0-1.859-0.838-1.859-1.814V77.167
		H126.447L126.447,77.167z"/>
	<path fill="none" stroke="#000000" stroke-width="5.1024" stroke-miterlimit="3.8637" d="M12.904,99.75l18.547-18.546
		 M12.037,81.297l19.701,19.768"/>
</g>
</svg>
